<svg xmlns="http://www.w3.org/2000/svg" width="54.452" height="44.465" viewBox="0 0 54.452 44.465"><defs><style>.a{fill:none;}.b{fill:#ef7d05;}</style></defs><g transform="translate(-1107 -802)"><rect class="a" width="54.452" height="44.465" transform="translate(1107 802)"/><g transform="translate(1109.824 804.245)"><path class="b" d="M48.762,64.569a1.451,1.451,0,0,0-.252-.806l-5.7-8.555a1.429,1.429,0,0,0-1.189-.636h-10V47.429A1.429,1.429,0,0,0,30.19,46H1.429A1.429,1.429,0,0,0,0,47.429V78.857a1.429,1.429,0,0,0,1.429,1.429H5.714a5.714,5.714,0,1,0,11.429,0H31.619a5.714,5.714,0,1,0,11.429,0h1.429A4.291,4.291,0,0,0,48.762,76V64.572h0ZM11.429,83.143a2.857,2.857,0,1,1,2.857-2.857A2.86,2.86,0,0,1,11.429,83.143Zm17.333-5.714H16.374a5.709,5.709,0,0,0-9.891,0H2.857V71.714h25.9Zm0-8.571H2.857v-20h25.9Zm8.571-11.428h3.521l3.809,5.714H42.5l-1.034-2.067a1.429,1.429,0,1,0-2.556,1.278l.395.79H37.333Zm0,25.714a2.857,2.857,0,1,1,2.857-2.857A2.86,2.86,0,0,1,37.333,83.143ZM45.9,76a1.43,1.43,0,0,1-1.429,1.429h-2.2a5.709,5.709,0,0,0-9.891,0h-.769v-20h2.857v7.143A1.429,1.429,0,0,0,35.9,66h10Z" transform="translate(0 -46)"/><g transform="translate(30.584 21.362)"><path class="b" d="M369.931,286h-5.287a2.644,2.644,0,0,0,0,5.287h5.287a2.644,2.644,0,0,0,0-5.287Z" transform="translate(-362 -286)"/></g></g></g></svg>