<svg xmlns="http://www.w3.org/2000/svg" width="119" height="112" viewBox="0 0 119 112"><defs><style>.a{fill:#fff;stroke:#121212;stroke-width:1.5px;}.b{fill:#121212;}.c{stroke:none;}.d{fill:none;}</style></defs><g transform="translate(-592 -374)"><g class="a" transform="translate(592 374)"><rect class="c" width="119" height="112" rx="20"/><rect class="d" x="0.75" y="0.75" width="117.5" height="110.5" rx="19.25"/></g><g transform="translate(635.438 406.997)"><path class="b" d="M38.971,23.174c0-.01,0-.019,0-.029,0-.027-.008-.054-.014-.081,0-.01-.005-.02-.008-.031s-.014-.051-.023-.076l-.011-.029c-.01-.025-.021-.05-.033-.075,0-.008-.007-.017-.012-.025-.015-.029-.032-.057-.05-.085l0-.008a.947.947,0,0,0-.065-.086l-.02-.022c-.018-.019-.035-.038-.054-.056l-.028-.026c-.019-.016-.037-.032-.057-.046l-.017-.014-10.453-7.6V-.015a2.57,2.57,0,0,0-2.567-2.567H14.888a.987.987,0,0,0-.987.987.987.987,0,0,0,.987.987H25.551a.6.6,0,0,1,.592.592v30.7l-1.185.861V1.565a.987.987,0,0,0-.987-.987H8.569a.987.987,0,0,0-.987.987V31.542L6.4,30.681V-.015A.6.6,0,0,1,6.99-.607H8.079a.988.988,0,0,0,.987-.987.988.988,0,0,0-.987-.987H6.99A2.57,2.57,0,0,0,4.423-.015v14.9l-10.454,7.6-.016.014c-.019.015-.039.031-.057.047s-.019.016-.028.026-.036.037-.053.056l-.02.022a1.023,1.023,0,0,0-.065.086l-.006.009c-.018.027-.034.056-.049.084l-.012.025c-.012.025-.023.049-.032.075l-.011.029c-.008.025-.016.05-.023.075l-.008.031a.782.782,0,0,0-.014.08c0,.009,0,.019,0,.029a.986.986,0,0,0-.007.111V45.4A2.57,2.57,0,0,0-3.87,47.967H36.411a2.554,2.554,0,0,0,1.673-.623l0,0a2.562,2.562,0,0,0,.891-1.942V23.285A1.025,1.025,0,0,0,38.971,23.174ZM37,45.041,23.379,35.132,37,25.224ZM-4.463,25.224,9.161,35.132-4.463,45.041Zm20.036,7.687a1.406,1.406,0,0,1,1.459.048L34.955,45.993H-2.414ZM28.118,17.326l8.194,5.959-8.194,5.96ZM9.557,2.552H22.984V32.978l-1.283.933-3.506-2.55a3.382,3.382,0,0,0-3.782-.047l-3.572,2.6-1.283-.933ZM4.423,17.326V29.245l-8.194-5.96Zm0,0"/><path class="b" d="M398.624-.607h.026a.987.987,0,0,0,.987-.987.987.987,0,0,0-.987-.987h-.026a.987.987,0,0,0-.987.987A.987.987,0,0,0,398.624-.607Zm0,0" transform="translate(-387.708)"/><path class="b" d="M481.826,272.611l1.725.714a.88.88,0,1,1-.673,1.626l-.862-.357a.987.987,0,0,0-.756,1.825l.82.34v1.222a.987.987,0,0,0,1.975,0v-1.115a2.855,2.855,0,0,0,.253-5.364l-1.726-.715a.88.88,0,0,1,.674-1.626l.862.358a.987.987,0,0,0,.755-1.825l-.819-.339v-1.222a.987.987,0,0,0-1.975,0v1.114a2.855,2.855,0,0,0-.253,5.365Zm0,0" transform="translate(-466.796 -256.883)"/><path class="b" d="M515.121,748.362a.987.987,0,0,0,.987.987h4.052a.987.987,0,1,0,0-1.974h-4.052A.987.987,0,0,0,515.121,748.362Zm0,0" transform="translate(-500.434 -719.582)"/><path class="b" d="M445.507,749.349h.023a.987.987,0,1,0,0-1.974h-.023a.987.987,0,1,0,0,1.974Zm0,0" transform="translate(-432.692 -719.582)"/></g></g></svg>