<svg xmlns="http://www.w3.org/2000/svg" width="46.451" height="46.451" viewBox="0 0 46.451 46.451"><defs><style>.a{fill:none;}.b{fill:#ef7d05;}</style></defs><path class="a" d="M0,0H46.451V46.451H0Z"/><path class="b" d="M21.355,2A19.355,19.355,0,1,0,40.709,21.355,19.362,19.362,0,0,0,21.355,2ZM11.813,33.509c.832-1.742,5.9-3.445,9.542-3.445s8.729,1.7,9.542,3.445a15.339,15.339,0,0,1-19.084,0ZM33.664,30.7c-2.768-3.368-9.484-4.51-12.31-4.51s-9.542,1.142-12.31,4.51a15.484,15.484,0,1,1,24.619,0ZM21.355,9.742a6.774,6.774,0,1,0,6.774,6.774A6.757,6.757,0,0,0,21.355,9.742Zm0,9.677a2.9,2.9,0,1,1,2.9-2.9A2.9,2.9,0,0,1,21.355,19.419Z" transform="translate(1.871 1.871)"/></svg>