<svg xmlns="http://www.w3.org/2000/svg" width="35.108" height="42.784" viewBox="0 0 35.108 42.784"><defs><style>.a{fill:#000bb6;stroke:#000bb6;stroke-linecap:round;stroke-linejoin:round;}</style></defs><g transform="translate(0.5 0.5)"><g transform="translate(4.187 6.281)"><g transform="translate(0)"><path class="a" d="M103.179,79.054a.654.654,0,0,0-.654.654,1.439,1.439,0,1,1-1.439-1.439.654.654,0,1,0,0-1.309,2.748,2.748,0,1,0,2.748,2.748A.654.654,0,0,0,103.179,79.054Z" transform="translate(-98.338 -76.96)"/></g></g><g transform="translate(4.187 13.957)"><g transform="translate(0)"><path class="a" d="M103.179,173.116a.654.654,0,0,0-.654.654,1.439,1.439,0,1,1-1.439-1.439.654.654,0,1,0,0-1.309,2.748,2.748,0,1,0,2.748,2.748A.654.654,0,0,0,103.179,173.116Z" transform="translate(-98.338 -171.022)"/></g></g><g transform="translate(11.166 17.446)"><path class="a" d="M189.388,213.779H184.5a.654.654,0,1,0,0,1.309h4.885a.654.654,0,0,0,0-1.309Z" transform="translate(-183.849 -213.779)"/></g><g transform="translate(11.166 14.655)"><path class="a" d="M189.388,179.574H184.5a.654.654,0,1,0,0,1.309h4.885a.654.654,0,0,0,0-1.309Z" transform="translate(-183.849 -179.574)"/></g><g transform="translate(11.166 25.123)"><path class="a" d="M187.993,307.841H184.5a.654.654,0,1,0,0,1.309h3.489a.654.654,0,1,0,0-1.309Z" transform="translate(-183.849 -307.841)"/></g><g transform="translate(11.166 22.331)"><path class="a" d="M189.388,273.637H184.5a.654.654,0,1,0,0,1.309h4.885a.654.654,0,1,0,0-1.309Z" transform="translate(-183.849 -273.637)"/></g><g transform="translate(11.166 9.77)"><path class="a" d="M195.669,119.716H184.5a.654.654,0,1,0,0,1.309h11.166a.654.654,0,0,0,0-1.309Z" transform="translate(-183.849 -119.716)"/></g><g transform="translate(11.166 6.978)"><path class="a" d="M192.877,85.511H184.5a.654.654,0,1,0,0,1.309h8.374a.654.654,0,1,0,0-1.309Z" transform="translate(-183.849 -85.511)"/></g><g transform="translate(4.187 21.633)"><g transform="translate(0)"><path class="a" d="M103.179,267.179a.654.654,0,0,0-.654.654,1.439,1.439,0,1,1-1.439-1.439.654.654,0,1,0,0-1.309,2.748,2.748,0,1,0,2.748,2.748A.654.654,0,0,0,103.179,267.179Z" transform="translate(-98.338 -265.085)"/></g></g><g transform="translate(0)"><g transform="translate(0)"><path class="a" d="M72.808,0H49.081a2.052,2.052,0,0,0-2.05,2.05V31.36a2.052,2.052,0,0,0,2.05,2.05H60.944a.654.654,0,1,0,0-1.309H49.081a.742.742,0,0,1-.741-.741V2.05a.742.742,0,0,1,.741-.741H72.808a.742.742,0,0,1,.741.741V23.683a.654.654,0,1,0,1.309,0V2.05A2.052,2.052,0,0,0,72.808,0Z" transform="translate(-47.031)"/></g></g><g transform="translate(15.703 14.655)"><g transform="translate(0)"><path class="a" d="M255.7,191.453a2.414,2.414,0,0,0-1.7.477,2.383,2.383,0,0,0-1.792-1.175,2.414,2.414,0,0,0-1.7.477,2.383,2.383,0,0,0-1.792-1.175,2.417,2.417,0,0,0-1.336.25v-8.332a2.4,2.4,0,0,0-2.644-2.387,2.475,2.475,0,0,0-2.154,2.486v8.353l-1.923,1.923a4.117,4.117,0,0,0-1.1,3.879l1.46,6.205a5.518,5.518,0,0,0,5.392,4.271h5.9a5.545,5.545,0,0,0,5.539-5.539V193.94A2.475,2.475,0,0,0,255.7,191.453Zm.845,9.714a4.236,4.236,0,0,1-4.231,4.231h-5.9a4.215,4.215,0,0,1-4.118-3.262l-1.46-6.205a2.817,2.817,0,0,1,.755-2.654l1-1v2.259a.654.654,0,1,0,1.309,0V182.076a1.157,1.157,0,0,1,.976-1.184,1.091,1.091,0,0,1,1.205,1.085v11.515a.654.654,0,1,0,1.309,0v-1.047a1.091,1.091,0,0,1,1.205-1.085,1.157,1.157,0,0,1,.976,1.184v1.645a.654.654,0,1,0,1.309,0v-1.047a1.091,1.091,0,0,1,1.205-1.085,1.157,1.157,0,0,1,.976,1.184v1.645a.654.654,0,0,0,1.309,0V193.84a1.091,1.091,0,0,1,1.205-1.085,1.157,1.157,0,0,1,.976,1.184v7.228Z" transform="translate(-239.452 -179.578)"/></g></g></g></svg>