<svg xmlns="http://www.w3.org/2000/svg" xmlns:xlink="http://www.w3.org/1999/xlink" width="30" height="44.689" viewBox="0 0 30 44.689"><defs><style>.a{fill:#ef7d05;}.b{clip-path:url(#a);}.c{clip-path:url(#b);}</style><clipPath id="a"><path class="a" d="M68.75-51.229l-22.5-.021a3.991,3.991,0,0,0-3.75,4.194v33.551a4,4,0,0,0,3.75,4.194h22.5a4,4,0,0,0,3.75-4.194V-47.056A3.97,3.97,0,0,0,68.75-51.229Zm0,37.724H46.25V-32.419h22.5Zm0-23.066H46.25V-47.056h22.5ZM50-44.959h3.75v6.291H50Zm0,14.679h3.75V-19.8H50Z" transform="translate(-42.5 51.25)"/></clipPath><clipPath id="b"><path class="a" d="M-32,401.071H343V-346H-32Z" transform="translate(32 346)"/></clipPath></defs><g transform="translate(-358.5 -224.75)"><g class="b" transform="translate(358.5 224.75)"><g class="c" transform="translate(-74.5 -329.639)"><path class="a" d="M37.5-56.25h40V-3.127h-40Z" transform="translate(32 380.297)"/></g></g><rect class="a" width="6" height="3" transform="translate(362 266.439)"/><rect class="a" width="6" height="3" transform="translate(380 266.439)"/></g></svg>