<svg xmlns="http://www.w3.org/2000/svg" width="41" height="41" viewBox="0 0 41 41"><defs><style>.a{fill:#fff;stroke-width:1.5px;}.a,.b{stroke:#bfbfbf;}.b{fill:#bfbfbf;stroke-width:0.5px;}.c{stroke:none;}.d{fill:none;}</style></defs><g transform="translate(-680.547 -627)"><g class="a" transform="translate(680.547 627)"><rect class="c" width="41" height="41" rx="10"/><rect class="d" x="0.75" y="0.75" width="39.5" height="39.5" rx="9.25"/></g><g transform="translate(693.625 652.927) rotate(-90)"><path class="b" d="M.239,8.15,7.59,14.99a.872.872,0,0,0,1.168,0,.73.73,0,0,0,0-1.085L1.99,7.607l6.767-6.3a.73.73,0,0,0,0-1.086.872.872,0,0,0-1.168,0L.238,7.064A.737.737,0,0,0,.239,8.15Z" transform="translate(0 0)"/></g></g></svg>