<svg xmlns="http://www.w3.org/2000/svg" width="119" height="112" viewBox="0 0 119 112"><defs><style>.a{fill:#fff;stroke:#121212;stroke-width:1.5px;}.b{fill:#121212;}.c{stroke:none;}.d{fill:none;}</style></defs><g transform="translate(-431 -374)"><g class="a" transform="translate(431 374)"><rect class="c" width="119" height="112" rx="20"/><rect class="d" x="0.75" y="0.75" width="117.5" height="110.5" rx="19.25"/></g><g transform="translate(462.263 377.415)"><g transform="translate(0 27)"><path class="b" d="M50.99,27H5.518A5.525,5.525,0,0,0,0,32.518V72.031a5.525,5.525,0,0,0,5.518,5.518H50.99a5.525,5.525,0,0,0,5.518-5.518V32.518A5.525,5.525,0,0,0,50.99,27ZM54.3,72.031a3.315,3.315,0,0,1-3.311,3.311H5.518a3.315,3.315,0,0,1-3.311-3.311V32.518a3.315,3.315,0,0,1,3.311-3.311H50.99A3.315,3.315,0,0,1,54.3,32.518Z" transform="translate(0 -27)"/></g><g transform="translate(5.96 34.615)"><path class="b" d="M55.1,96A1.1,1.1,0,0,0,54,97.1V131.87a1.1,1.1,0,1,0,2.207,0V97.1A1.1,1.1,0,0,0,55.1,96Z" transform="translate(-54 -96)"/></g><g transform="translate(11.258 34.615)"><path class="b" d="M103.1,96a1.1,1.1,0,0,0-1.1,1.1V120.06a1.1,1.1,0,1,0,2.207,0V97.1A1.1,1.1,0,0,0,103.1,96Z" transform="translate(-102 -96)"/></g><g transform="translate(16.555 57.572)"><path class="b" d="M151.884,304.323a1.1,1.1,0,1,0,.323.78A1.112,1.112,0,0,0,151.884,304.323Z" transform="translate(-150 -304)"/></g><g transform="translate(16.555 34.615)"><path class="b" d="M151.1,96a1.1,1.1,0,0,0-1.1,1.1V116a1.1,1.1,0,1,0,2.207,0V97.1A1.1,1.1,0,0,0,151.1,96Z" transform="translate(-150 -96)"/></g><g transform="translate(22.736 34.615)"><path class="b" d="M207.1,96a1.1,1.1,0,0,0-1.1,1.1V120.06a1.1,1.1,0,1,0,2.207,0V97.1A1.1,1.1,0,0,0,207.1,96Z" transform="translate(-206 -96)"/></g><g transform="translate(27.151 34.615)"><path class="b" d="M247.1,96a1.1,1.1,0,0,0-1.1,1.1V120.06a1.1,1.1,0,1,0,2.207,0V97.1A1.1,1.1,0,0,0,247.1,96Z" transform="translate(-246 -96)"/></g><g transform="translate(31.345 34.615)"><path class="b" d="M285.1,96a1.1,1.1,0,0,0-1.1,1.1V120.06a1.1,1.1,0,0,0,2.207,0V97.1A1.1,1.1,0,0,0,285.1,96Z" transform="translate(-284 -96)"/></g><g transform="translate(37.746 34.615)"><path class="b" d="M343.1,96a1.1,1.1,0,0,0-1.1,1.1V120.06a1.1,1.1,0,1,0,2.207,0V97.1A1.1,1.1,0,0,0,343.1,96Z" transform="translate(-342 -96)"/></g><g transform="translate(43.044 57.572)"><path class="b" d="M391.884,304.323a1.1,1.1,0,1,0,.323.78A1.112,1.112,0,0,0,391.884,304.323Z" transform="translate(-390 -304)"/></g><g transform="translate(43.044 34.615)"><path class="b" d="M391.1,96a1.1,1.1,0,0,0-1.1,1.1V116a1.1,1.1,0,0,0,2.207,0V97.1A1.1,1.1,0,0,0,391.1,96Z" transform="translate(-390 -96)"/></g><g transform="translate(48.342 34.615)"><path class="b" d="M439.1,96a1.1,1.1,0,0,0-1.1,1.1V131.87a1.1,1.1,0,1,0,2.207,0V97.1A1.1,1.1,0,0,0,439.1,96Z" transform="translate(-438 -96)"/></g><g transform="translate(18.063 63.429)"><path class="b" d="M167.883,362.965h-.347a5.378,5.378,0,0,0,1.45-3.242,2.546,2.546,0,0,0-2.661-2.661,2.664,2.664,0,0,0-2.661,2.661,1.1,1.1,0,1,0,2.207,0,.454.454,0,0,1,.454-.454c.409,0,.454.145.454.454,0,1.026-1.559,2.639-2.665,3.456a1.1,1.1,0,0,0,.654,1.993h3.115a1.1,1.1,0,0,0,0-2.207Z" transform="translate(-163.664 -357.062)"/></g><g transform="translate(11.258 63.361)"><path class="b" d="M105.6,356.534a1.1,1.1,0,0,0-1.2.239l-2.071,2.071a1.1,1.1,0,0,0,1.561,1.561l.187-.187v3.3a1.1,1.1,0,1,0,2.207,0v-5.96A1.1,1.1,0,0,0,105.6,356.534Z" transform="translate(-102 -356.45)"/></g><g transform="translate(40.166 63.361)"><path class="b" d="M366.184,359.018h-.047v-.36h1.508a1.1,1.1,0,0,0,0-2.207h-2.611a1.1,1.1,0,0,0-1.1,1.1v2.568a1.1,1.1,0,0,0,1.1,1.1h1.151a.623.623,0,1,1,0,1.246h-1.151a1.1,1.1,0,1,0,0,2.207h1.151a2.83,2.83,0,1,0,0-5.66Z" transform="translate(-363.929 -356.45)"/></g><g transform="translate(32.627 63.9)"><path class="b" d="M300.471,363.905v-1.465a1.1,1.1,0,1,0-2.207,0v1.367h-.442v-1.367a1.1,1.1,0,1,0-2.207,0v2.471a1.1,1.1,0,0,0,1.1,1.1h1.546v1.373a1.1,1.1,0,0,0,2.207,0v-1.47a1.1,1.1,0,0,0,0-2.012Z" transform="translate(-295.614 -361.337)"/></g><g transform="translate(25.575 63.442)"><path class="b" d="M236.678,359.762a2.578,2.578,0,0,0-2.575-2.575h-1.277a1.1,1.1,0,1,0,0,2.207H234.1a.368.368,0,0,1,.081.726l-1.358,0a1.1,1.1,0,1,0,0,2.207l1.358.01a.368.368,0,0,1-.081.726h-1.277a1.1,1.1,0,0,0,0,2.207H234.1a17.131,17.131,0,0,0,2.575-5.507Z" transform="translate(-231.722 -357.187)"/></g></g></g></svg>