<svg xmlns="http://www.w3.org/2000/svg" width="77.336" height="30.937" viewBox="0 0 77.336 30.937"><defs><style>.a{fill:#f28d22;}</style></defs><path class="a" d="M245.156,86.891H240v2.578h5.156Zm0,0" transform="translate(-200.043 -75.29)"/><path class="a" d="M1.106,8.238l8.755-1.25a44.177,44.177,0,0,1,4.961-2.629A43.406,43.406,0,0,1,32.78.492H34.3A43.813,43.813,0,0,1,55.222,5.827l4.419,2.41a30.456,30.456,0,0,1,14.739,4,5.884,5.884,0,0,1,2.957,5.1v7.654a1.289,1.289,0,0,1-1.289,1.289H71.719a7.705,7.705,0,0,1-14.543,0H22.739a7.705,7.705,0,0,1-14.543,0H7.734a1.294,1.294,0,0,1-.479-.092L3.08,24.5A4.874,4.874,0,0,1,0,19.955V9.514A1.29,1.29,0,0,1,1.106,8.238ZM59.4,24.724a5.156,5.156,0,1,0-.1-1.031A5.156,5.156,0,0,0,59.4,24.724ZM36.09,23.693H56.714a7.734,7.734,0,1,1,15.467,0h2.578V17.328A3.3,3.3,0,0,0,73.1,14.471,27.867,27.867,0,0,0,59.291,10.8H36.09Zm0-15.467H54.236l-.249-.136a41.213,41.213,0,0,0-17.9-4.964ZM33.513,3.07h-.73A40.794,40.794,0,0,0,17.617,5.975l2.25,2.25H33.513Zm-23.1,21.654a5.156,5.156,0,1,0-.1-1.031A5.156,5.156,0,0,0,10.416,24.724ZM2.578,12.092H6.445v2.578H2.578v5.285a2.307,2.307,0,0,0,1.459,2.153l3.7,1.485c0-.119.015-.236.023-.355s.01-.258.023-.387.039-.258.059-.387.036-.258.062-.375.063-.248.1-.37.059-.246.1-.366.085-.234.128-.352.084-.238.129-.355.106-.221.16-.331.107-.23.167-.34.129-.205.187-.308.128-.221.2-.326.142-.189.213-.285.151-.208.233-.307.159-.177.24-.258.169-.19.258-.281.177-.162.265-.241.185-.174.283-.258.2-.148.295-.221.2-.152.3-.221.219-.128.33-.2.2-.129.306-.184.234-.114.353-.17.211-.107.321-.153.258-.1.387-.142.213-.083.323-.117c.147-.045.3-.078.447-.115.1-.023.192-.054.291-.074.158-.033.321-.05.482-.074.1-.013.187-.034.282-.042a7.857,7.857,0,0,1,.786-.04A7.741,7.741,0,0,1,23.2,23.691H33.512V10.8H19.334a1.287,1.287,0,0,1-.911-.378L15.081,7.083a41.333,41.333,0,0,0-4.086,2.235,1.293,1.293,0,0,1-.5.183l-7.917,1.13Zm0,0" transform="translate(0 -0.492)"/></svg>