<svg xmlns="http://www.w3.org/2000/svg" xmlns:xlink="http://www.w3.org/1999/xlink" width="206.022" height="47.705" viewBox="0 0 206.022 47.705">
  <defs>
    <style>
      .cls-1, .cls-3 {
        fill: none;
      }

      .cls-2 {
        clip-path: url(#clip-path);
      }

      .cls-3 {
        stroke: #1b1918;
        stroke-miterlimit: 7.66;
        stroke-width: 0.57px;
      }

      .cls-4, .cls-6 {
        fill: #fff;
      }

      .cls-4, .cls-5, .cls-7 {
        fill-rule: evenodd;
      }

      .cls-5 {
        fill: #f07c00;
      }

      .cls-7 {
        fill: #000cb7;
      }
    </style>
    <clipPath id="clip-path">
      <rect id="Retângulo_94" data-name="Retângulo 94" class="cls-1" width="206.022" height="47.705" transform="translate(212.28 206.29)"/>
    </clipPath>
  </defs>
  <g id="Logo_invertido" class="cls-2" transform="translate(-212.28 -206.29)">
    <rect id="Retângulo_91" data-name="Retângulo 91" class="cls-3" width="540.498" height="382.181" transform="translate(44.282 43.04)"/>
    <path id="Caminho_128" data-name="Caminho 128" class="cls-4" d="M310.925,288.651c-1.541,9.309-9.823,15.665-18.361,14.188a15.28,15.28,0,0,1-11.363-8.924,18.977,18.977,0,0,0,14.573,12.326c10.4,1.733,20.351-5.585,22.213-16.435s-5.136-20.993-15.6-22.791a18.906,18.906,0,0,0-17.783,6.869,15.318,15.318,0,0,1,13.674-4.687C306.816,270.611,312.53,279.342,310.925,288.651Z" transform="translate(-56.389 -52.492)"/>
    <path id="Caminho_129" data-name="Caminho 129" class="cls-5" d="M286.778,287.74c1.027-6.163,6.548-10.4,12.262-9.437a10.2,10.2,0,0,1,7.511,5.971,12.384,12.384,0,0,0-9.694-8.218,13.229,13.229,0,0,0-4.43,26.065,12.84,12.84,0,0,0,11.941-4.494,10.458,10.458,0,0,1-9.116,3.082C289.538,299.745,285.751,293.967,286.778,287.74Z" transform="translate(-56.638 -55.754)"/>
    <path id="Caminho_130" data-name="Caminho 130" class="cls-5" d="M305.5,293.031a7.1,7.1,0,0,1-8.025,6.1,6.382,6.382,0,0,1-4.879-3.852,8,8,0,0,0,6.292,5.329,8.346,8.346,0,0,0,9.63-7.062,8.442,8.442,0,0,0-6.741-9.951,8.3,8.3,0,0,0-7.768,3.017,6.69,6.69,0,0,1,5.971-2.054C303.707,285.2,306.146,288.955,305.5,293.031Z" transform="translate(-60.47 -58.477)"/>
    <path id="Caminho_131" data-name="Caminho 131" class="cls-4" d="M344.631,293.435l-2.375-7.062-2.44,7.062ZM353.684,301.685Zm0,0h-6.1l-1.412-3.852h-7.9l-1.541,3.852H330.7l8.474-22.085H345.4Z" transform="translate(-74.11 -57.083)"/>
    <path id="Caminho_132" data-name="Caminho 132" class="cls-4" d="M381.641,297.811a3.486,3.486,0,0,0-3.4-3.37,3.293,3.293,0,0,0-3.4,3.4,3.4,3.4,0,0,0,1.027,2.44,3.21,3.21,0,0,0,2.375.963,3.377,3.377,0,0,0,3.4-3.4ZM387.162,297.875Zm0,0a7.819,7.819,0,0,1-2.632,6.1,7.293,7.293,0,0,1-4.879,1.8,6.671,6.671,0,0,1-2.953-.706,5.519,5.519,0,0,1-1.669-1.22v8.924H369.7V290.3h5.329v1.669a5.078,5.078,0,0,1,1.541-1.348,6.028,6.028,0,0,1,3.017-.77,7.428,7.428,0,0,1,5.008,1.926A7.8,7.8,0,0,1,387.162,297.875Z" transform="translate(-88.072 -60.753)"/>
    <rect id="Retângulo_92" data-name="Retângulo 92" class="cls-6" width="5.329" height="24.268" transform="translate(302.108 220.295)"/>
    <rect id="Retângulo_93" data-name="Retângulo 93" class="cls-6" width="5.329" height="15.023" transform="translate(310.967 229.54)"/>
    <path id="Caminho_133" data-name="Caminho 133" class="cls-5" d="M420.888,279.984a2.908,2.908,0,0,1-.9,2.119,2.963,2.963,0,1,1,.9-2.119Z" transform="translate(-104.271 -56.151)"/>
    <path id="Caminho_134" data-name="Caminho 134" class="cls-4" d="M440.276,304.937a7.274,7.274,0,0,1-3.467.835,7.973,7.973,0,1,1,0-15.922,7.274,7.274,0,0,1,3.467.835v4.494a4.956,4.956,0,0,0-2.76-.963,3.435,3.435,0,0,0-2.568,1.027,3.39,3.39,0,0,0-1.091,2.568,3.512,3.512,0,0,0,3.659,3.6,4.956,4.956,0,0,0,2.761-.963Z" transform="translate(-109.086 -60.753)"/>
    <path id="Caminho_135" data-name="Caminho 135" class="cls-4" d="M462.957,297.81a3.411,3.411,0,0,0-5.971-2.247,3.6,3.6,0,0,0-.835,2.247,3.423,3.423,0,0,0,.835,2.183,3.1,3.1,0,0,0,2.568,1.22,3.159,3.159,0,0,0,2.44-1.027A3.21,3.21,0,0,0,462.957,297.81ZM468.093,305.322Zm0,0h-5.329v-1.669A3.788,3.788,0,0,1,461.224,305a5.7,5.7,0,0,1-3.017.77,7.158,7.158,0,0,1-4.943-1.926,7.55,7.55,0,0,1-2.568-6.035,7.659,7.659,0,0,1,2.632-6.163,7.017,7.017,0,0,1,4.815-1.8,7.935,7.935,0,0,1,3.017.642,5.639,5.639,0,0,1,1.605,1.284V290.3h5.329Z" transform="translate(-117.065 -60.752)"/>
    <path id="Caminho_136" data-name="Caminho 136" class="cls-4" d="M494.823,292.906a3.512,3.512,0,0,0-3.4-3.4,3.21,3.21,0,0,0-2.568,1.22,3.422,3.422,0,0,0-.835,2.183,3.736,3.736,0,0,0,.835,2.247,3.21,3.21,0,0,0,2.568,1.156,3.293,3.293,0,0,0,3.4-3.4ZM499.959,300.418Zm0,0H494.63v-1.669a4.557,4.557,0,0,1-1.541,1.412,6.35,6.35,0,0,1-3.017.706,7.158,7.158,0,0,1-4.943-1.926,7.6,7.6,0,0,1-2.632-6.035,7.7,7.7,0,0,1,2.7-6.163,7.017,7.017,0,0,1,4.815-1.8,6.946,6.946,0,0,1,3.017.706,6.672,6.672,0,0,1,1.605,1.284V276.15h5.329Z" transform="translate(-128.451 -55.848)"/>
    <path id="Caminho_137" data-name="Caminho 137" class="cls-4" d="M526.918,297.675a3.4,3.4,0,0,0-1.027-2.44,3.255,3.255,0,0,0-2.44-1.027,3.551,3.551,0,0,0-2.7,1.22,3.737,3.737,0,0,0-.834,2.247,3.633,3.633,0,0,0,.834,2.311,3.351,3.351,0,0,0,2.7,1.22,3.159,3.159,0,0,0,2.44-1.027A3.211,3.211,0,0,0,526.918,297.675ZM532.439,297.675Zm0,0a7.7,7.7,0,0,1-2.054,5.393,10.345,10.345,0,0,1-13.931,0,7.941,7.941,0,0,1-2.054-5.521,7.454,7.454,0,0,1,2.054-5.136c1.669-1.862,4.045-2.761,7.126-2.761a8.718,8.718,0,0,1,6.805,2.761A7.537,7.537,0,0,1,532.439,297.675Z" transform="translate(-139.874 -60.681)"/>
    <path id="Caminho_138" data-name="Caminho 138" class="cls-4" d="M558.435,295.32a5.475,5.475,0,0,0-2.247-.514,3.217,3.217,0,0,0-3.4,2.183,5.926,5.926,0,0,0-.257,2.054v6.42H547.2V290.441h5.329v2.44a5.572,5.572,0,0,1,1.8-1.862,5.778,5.778,0,0,1,3.082-.77,6.265,6.265,0,0,1,1.027.064Z" transform="translate(-151.617 -60.894)"/>
    <path id="Caminho_139" data-name="Caminho 139" class="cls-7" d="M332.947,306.625a20.171,20.171,0,0,0,2.7-7.255,18.713,18.713,0,0,0,.128-5.971L330.7,306.625Z" transform="translate(-74.11 -62.024)"/>
  </g>
</svg>
