<svg xmlns="http://www.w3.org/2000/svg" xmlns:xlink="http://www.w3.org/1999/xlink" width="51.566" height="35.138" viewBox="0 0 51.566 35.138"><defs><style>.a,.b{fill:#ef7d05;}.a{clip-rule:evenodd;}.c{clip-path:url(#a);}.d{clip-path:url(#b);}.e{clip-path:url(#c);}.f{clip-path:url(#e);}.g{clip-path:url(#g);}.h{clip-path:url(#i);}.i{clip-path:url(#k);}.j{clip-path:url(#m);}.k{clip-path:url(#o);}.l{clip-path:url(#q);}.m{clip-path:url(#s);}.n{clip-path:url(#u);}.o{clip-path:url(#w);}.p{clip-path:url(#y);}.q{clip-path:url(#aa);}.r{clip-path:url(#ac);}.s{clip-path:url(#ae);}</style><clipPath id="a"><path class="a" d="M140.765-52.125h12.891v6.407H140.765Z" transform="translate(-140.765 52.125)"/></clipPath><clipPath id="b"><path class="b" d="M-32,244.3H299.382V-346H-32Z" transform="translate(32 346)"/></clipPath><clipPath id="c"><path class="a" d="M133.471-41.25h9.669v6.269h-9.669Z" transform="translate(-133.471 41.25)"/></clipPath><clipPath id="e"><path class="a" d="M148.059-41.25H154.5v6.307h-6.446Z" transform="translate(-148.059 41.25)"/></clipPath><clipPath id="g"><path class="a" d="M97-30.375h6.446v6.407H97Z" transform="translate(-97 30.375)"/></clipPath><clipPath id="i"><path class="a" d="M107.941-30.375h12.891v6.407H107.941Z" transform="translate(-107.941 30.375)"/></clipPath><clipPath id="k"><path class="a" d="M126.176-30.375h9.669v6.407h-9.669Z" transform="translate(-126.176 30.375)"/></clipPath><clipPath id="m"><path class="a" d="M140.765-30.375h12.891v6.407H140.765Z" transform="translate(-140.765 30.375)"/></clipPath><clipPath id="o"><path class="a" d="M115.235-41.25h12.891v6.269H115.235Z" transform="translate(-115.235 41.25)"/></clipPath><clipPath id="q"><path class="a" d="M97-41.25h12.891v6.269H97Z" transform="translate(-97 41.25)"/></clipPath><clipPath id="s"><path class="a" d="M133.471-19.5h9.669v6.269h-9.669Z" transform="translate(-133.471 19.5)"/></clipPath><clipPath id="u"><path class="a" d="M148.059-19.5H154.5v6.307h-6.446Z" transform="translate(-148.059 19.5)"/></clipPath><clipPath id="w"><path class="a" d="M115.235-19.5h12.891v6.269H115.235Z" transform="translate(-115.235 19.5)"/></clipPath><clipPath id="y"><path class="a" d="M97-19.5h12.891v6.269H97Z" transform="translate(-97 19.5)"/></clipPath><clipPath id="aa"><path class="a" d="M126.176-52.125h9.669v6.407h-9.669Z" transform="translate(-126.176 52.125)"/></clipPath><clipPath id="ac"><path class="a" d="M107.941-52.125h12.891v6.407H107.941Z" transform="translate(-107.941 52.125)"/></clipPath><clipPath id="ae"><path class="a" d="M97-52.125h6.446v6.407H97Z" transform="translate(-97 52.125)"/></clipPath></defs><g transform="translate(-703 -521.875)"><g class="c" transform="translate(741.674 521.875)"><g class="d" transform="translate(-152.67 -259.693)"><path class="b" d="M135.765-57.125h21.728v15.244H135.765Z" transform="translate(12.486 312.399)"/></g></g><g class="e" transform="translate(735.229 531.485)"><g class="d" transform="translate(-146.224 -269.303)"><path class="b" d="M128.471-46.25h18.505v15.106H128.471Z" transform="translate(13.335 311.135)"/></g></g><g class="f" transform="translate(748.12 531.485)"><g class="d" transform="translate(-159.115 -269.303)"><path class="b" d="M143.059-46.25h15.283v15.144H143.059Z" transform="translate(11.638 311.135)"/></g></g><g class="g" transform="translate(703 541.095)"><g class="d" transform="translate(-113.995 -278.913)"><path class="b" d="M92-35.375h15.283v15.244H92Z" transform="translate(17.577 309.87)"/></g></g><g class="h" transform="translate(712.669 541.095)"><g class="d" transform="translate(-123.664 -278.913)"><path class="b" d="M102.941-35.375h21.728v15.244H102.941Z" transform="translate(16.304 309.87)"/></g></g><g class="i" transform="translate(728.783 541.095)"><g class="d" transform="translate(-139.778 -278.913)"><path class="b" d="M121.176-35.375h18.505v15.244H121.176Z" transform="translate(14.183 309.87)"/></g></g><g class="j" transform="translate(741.674 541.095)"><g class="d" transform="translate(-152.67 -278.913)"><path class="b" d="M135.765-35.375h21.728v15.244H135.765Z" transform="translate(12.486 309.87)"/></g></g><g class="k" transform="translate(719.114 531.485)"><g class="d" transform="translate(-130.11 -269.303)"><path class="b" d="M110.235-46.25h21.728v15.106H110.235Z" transform="translate(15.456 311.135)"/></g></g><g class="l" transform="translate(703 531.485)"><g class="d" transform="translate(-113.995 -269.303)"><path class="b" d="M92-46.25h21.728v15.106H92Z" transform="translate(17.577 311.135)"/></g></g><g class="m" transform="translate(735.229 550.705)"><g class="d" transform="translate(-146.224 -288.523)"><path class="b" d="M128.471-24.5h18.505V-9.394H128.471Z" transform="translate(13.335 308.605)"/></g></g><g class="n" transform="translate(748.12 550.705)"><g class="d" transform="translate(-159.115 -288.523)"><path class="b" d="M143.059-24.5h15.283V-9.356H143.059Z" transform="translate(11.638 308.605)"/></g></g><g class="o" transform="translate(719.114 550.705)"><g class="d" transform="translate(-130.11 -288.523)"><path class="b" d="M110.235-24.5h21.728V-9.394H110.235Z" transform="translate(15.456 308.605)"/></g></g><g class="p" transform="translate(703 550.705)"><g class="d" transform="translate(-113.995 -288.523)"><path class="b" d="M92-24.5h21.728V-9.394H92Z" transform="translate(17.577 308.605)"/></g></g><g class="q" transform="translate(728.783 521.875)"><g class="d" transform="translate(-139.778 -259.693)"><path class="b" d="M121.176-57.125h18.505v15.244H121.176Z" transform="translate(14.183 312.399)"/></g></g><g class="r" transform="translate(712.669 521.875)"><g class="d" transform="translate(-123.664 -259.693)"><path class="b" d="M102.941-57.125h21.728v15.244H102.941Z" transform="translate(16.304 312.399)"/></g></g><g class="s" transform="translate(703 521.875)"><g class="d" transform="translate(-113.995 -259.693)"><path class="b" d="M92-57.125h15.283v15.244H92Z" transform="translate(17.577 312.399)"/></g></g></g></svg>