<svg xmlns="http://www.w3.org/2000/svg" xmlns:xlink="http://www.w3.org/1999/xlink" width="36" height="35.991" viewBox="0 0 36 35.991"><defs><style>.a{fill:#ef7d05;}.b{clip-path:url(#a);}.c{clip-path:url(#b);}</style><clipPath id="a"><path class="a" d="M184.773-39.9a1.6,1.6,0,0,1-.6-.457,1.129,1.129,0,0,1-.176-.668,1.129,1.129,0,0,1,.176-.668,1.6,1.6,0,0,1,.6-.457L199.7-49.6A4.849,4.849,0,0,1,202-50a4.849,4.849,0,0,1,2.3.4l14.93,7.453a1.6,1.6,0,0,1,.6.457,1.129,1.129,0,0,1,.176.668,1.129,1.129,0,0,1-.176.668,1.6,1.6,0,0,1-.6.457L204.3-32.446a4.849,4.849,0,0,1-2.3.4,4.849,4.849,0,0,1-2.3-.4Zm0,18.047a1.6,1.6,0,0,1-.6-.457,1.129,1.129,0,0,1-.176-.668,1.129,1.129,0,0,1,.176-.668,1.6,1.6,0,0,1,.6-.457l3.75-1.875L199.7-20.4a4.743,4.743,0,0,0,2.3.375,4.744,4.744,0,0,0,2.3-.375l11.18-5.578,3.75,1.875a1.6,1.6,0,0,1,.6.457,1.129,1.129,0,0,1,.176.668,1.129,1.129,0,0,1-.176.668,1.6,1.6,0,0,1-.6.457L204.3-14.4a4.744,4.744,0,0,1-2.3.375,4.744,4.744,0,0,1-2.3-.375Zm0-9a1.6,1.6,0,0,1-.6-.457,1.129,1.129,0,0,1-.176-.668,1.129,1.129,0,0,1,.176-.668,1.6,1.6,0,0,1,.6-.457l3.75-1.875L199.7-29.4a4.743,4.743,0,0,0,2.3.375,4.744,4.744,0,0,0,2.3-.375l11.18-5.578,3.75,1.875a1.6,1.6,0,0,1,.6.457,1.129,1.129,0,0,1,.176.668,1.129,1.129,0,0,1-.176.668,1.6,1.6,0,0,1-.6.457L204.3-23.4a4.744,4.744,0,0,1-2.3.375,4.744,4.744,0,0,1-2.3-.375Z" transform="translate(-184 50.005)"/></clipPath><clipPath id="b"><path class="a" d="M-32,255.2H305.5V-346H-32Z" transform="translate(32 346)"/></clipPath></defs><g class="b"><g class="c" transform="translate(-194.4 -266.396)"><path class="a" d="M179-55h45v44.991H179Z" transform="translate(10.9 316.9)"/></g></g></svg>