<svg xmlns="http://www.w3.org/2000/svg" width="38.814" height="38.983" viewBox="0 0 38.814 38.983">
  <defs>
    <style>
      .cls-1 {
        fill: #e5e5e5;
      }

      .cls-2, .cls-4 {
        fill: #fff;
      }

      .cls-3 {
        fill: #64b161;
      }

      .cls-4 {
        fill-rule: evenodd;
      }
    </style>
  </defs>
  <g id="whatsapp" transform="translate(0 0.001)">
    <path id="Caminho_81" data-name="Caminho 81" class="cls-1" d="M.83,38.983a.83.83,0,0,1-.8-1.048L2.564,28.68a19.33,19.33,0,1,1,16.921,9.983h-.008a19.368,19.368,0,0,1-8.944-2.2L1.04,38.956a.834.834,0,0,1-.21.027Zm0,0" transform="translate(0)"/>
    <path id="Caminho_82" data-name="Caminho 82" class="cls-2" d="M10.895,48.219l2.624-9.584A18.5,18.5,0,1,1,29.55,47.9h-.008a18.484,18.484,0,0,1-8.84-2.251ZM21.156,42.3l.562.333a15.356,15.356,0,0,0,7.826,2.143h.006a15.375,15.375,0,1,0-13.026-7.2l.366.582-1.554,5.672Zm0,0" transform="translate(-10.065 -10.066)"/>
    <path id="Caminho_83" data-name="Caminho 83" class="cls-3" d="M19.344,55.415l2.534-9.252a17.86,17.86,0,1,1,15.476,8.943h-.008a17.856,17.856,0,0,1-8.534-2.173Zm0,0" transform="translate(-17.871 -17.908)"/>
    <g id="Grupo_45" data-name="Grupo 45" transform="translate(0.83 0.829)">
      <path id="Caminho_84" data-name="Caminho 84" class="cls-2" d="M10.895,48.219l2.624-9.584A18.5,18.5,0,1,1,29.55,47.9h-.008a18.484,18.484,0,0,1-8.84-2.251ZM21.156,42.3l.562.333a15.356,15.356,0,0,0,7.826,2.143h.006a15.375,15.375,0,1,0-13.026-7.2l.366.582-1.554,5.672Zm0,0" transform="translate(-10.895 -10.895)"/>
      <path id="Caminho_85" data-name="Caminho 85" class="cls-4" d="M137.223,142.423c-.346-.77-.711-.785-1.04-.8-.269-.012-.578-.011-.886-.011a1.7,1.7,0,0,0-1.232.578,5.182,5.182,0,0,0-1.618,3.855,8.991,8.991,0,0,0,1.888,4.781c.231.308,3.2,5.125,7.9,6.978,3.9,1.54,4.7,1.234,5.547,1.157a4.669,4.669,0,0,0,3.12-2.2,3.86,3.86,0,0,0,.27-2.2c-.116-.192-.424-.308-.886-.539s-2.735-1.35-3.159-1.5-.732-.231-1.04.232-1.194,1.5-1.463,1.811-.539.348-1,.116a12.64,12.64,0,0,1-3.717-2.294,13.928,13.928,0,0,1-2.572-3.2c-.269-.462,0-.691.2-.943a13.94,13.94,0,0,0,1.155-1.58.852.852,0,0,0-.038-.81C138.532,145.623,137.633,143.337,137.223,142.423Zm0,0" transform="translate(-123.191 -131.66)"/>
    </g>
  </g>
</svg>
